<svg width="625" height="430" viewBox="0 0 625 430" fill="none" xmlns="http://www.w3.org/2000/svg">
<path d="M624 429H431C453.667 384.5 499.5 294.6 501.5 291C522.3 253 543.5 275.167 551.5 291L624 429Z" fill="white"/>
<path d="M181 53.0066C277 -42.9934 370 13.0066 404.5 53.0066C353.3 48.6065 317.5 94.8399 306 118.507C286.5 158.007 246.5 239.007 242.5 247.007C183 385.507 167 384.507 134.5 408.507C108.5 427.707 34 425.84 0 422.507C55.3333 309.173 169 76.6066 181 53.0066Z" fill="white"/>
<path d="M401 57.5132C497 -38.4868 590 17.5132 624.5 57.5132C573.3 53.1131 537.5 99.3465 526 123.013C506.5 162.513 466.5 243.513 462.5 251.513C403 390.013 387 389.013 354.5 413.013C328.5 432.213 254 430.347 220 427.013C275.333 313.68 389 81.1132 401 57.5132Z" fill="white"/>
</svg>
