<svg width="2888" height="449" viewBox="0 0 2888 449" fill="none" xmlns="http://www.w3.org/2000/svg">
<g clip-path="url(#clip0_2112_35)">
<path d="M635 439H442C464.667 394.5 510.5 304.6 512.5 301C533.3 263 554.5 285.167 562.5 301L635 439Z" fill="white"/>
<path d="M192 63.0066C288 -32.9934 381 23.0066 415.5 63.0066C364.3 58.6065 328.5 104.84 317 128.507C297.5 168.007 257.5 249.007 253.5 257.007C194 395.507 178 394.507 145.5 418.507C119.5 437.707 45 435.84 11 432.507C66.3333 319.173 180 86.6066 192 63.0066Z" fill="white"/>
<path d="M412 67.5132C508 -28.4868 601 27.5132 635.5 67.5132C584.3 63.1131 548.5 109.346 537 133.013C517.5 172.513 477.5 253.513 473.5 261.513C414 400.013 398 399.013 365.5 423.013C339.5 442.213 265 440.347 231 437.013C286.333 323.68 400 91.1132 412 67.5132Z" fill="white"/>
<path d="M796.6 187.2L915 436H847.4L773 260.4L796.6 187.2ZM721.4 411.6C718.467 418.8 718.867 424.4 722.6 428.4C726.333 432.133 730.467 434 735 434H738.2V438H658.2V434C658.2 434 658.733 434 659.8 434C660.867 434 661.4 434 661.4 434C666.733 434 672.333 432.4 678.2 429.2C684.067 425.733 688.867 419.867 692.6 411.6H721.4ZM796.6 187.2L797.4 235.2L710.6 436.8H681L774.6 235.6C775.133 234 776.333 231.2 778.2 227.2C780.067 222.933 782.067 218.267 784.2 213.2C786.333 207.867 788.333 202.933 790.2 198.4C792.067 193.6 793.133 189.867 793.4 187.2H796.6ZM831.4 359.6V375.2H729.4V359.6H831.4ZM837.4 411.6H903.4C907.4 419.867 912.333 425.733 918.2 429.2C924.067 432.4 929.667 434 935 434C935 434 935.533 434 936.6 434C937.667 434 938.2 434 938.2 434V438H820.6V434H823.8C828.333 434 832.467 432.133 836.2 428.4C839.933 424.4 840.333 418.8 837.4 411.6ZM1026.31 192.8C1031.64 192.8 1038.04 193.067 1045.51 193.6C1053.24 194.133 1060.84 194.8 1068.31 195.6C1075.78 196.133 1082.31 196.933 1087.91 198C1093.78 198.8 1097.78 199.6 1099.91 200.4L1094.71 249.2H1091.11C1091.11 236.933 1086.84 227.2 1078.31 220C1069.78 212.8 1057.51 209.2 1041.51 209.2C1028.71 209.2 1018.31 212 1010.31 217.6C1002.58 223.2 998.443 230.667 997.909 240C997.376 244.8 998.176 249.2 1000.31 253.2C1002.71 256.933 1005.91 260.267 1009.91 263.2C1014.18 266.133 1018.84 269.067 1023.91 272L1086.71 310.8C1097.38 316.133 1105.78 323.867 1111.91 334C1118.04 344.133 1120.71 356.4 1119.91 370.8C1119.11 385.733 1114.71 398.667 1106.71 409.6C1098.98 420.533 1088.18 428.933 1074.31 434.8C1060.71 440.4 1044.58 443.2 1025.91 443.2C1014.44 443.2 1003.78 442.267 993.909 440.4C984.043 438.533 975.509 436 968.309 432.8C961.376 429.6 956.043 426 952.309 422C950.176 416.667 949.243 410.267 949.509 402.8C949.776 395.067 950.976 387.467 953.109 380C955.243 372.267 957.909 365.867 961.109 360.8H964.309C963.509 372.8 965.643 383.867 970.709 394C976.043 404.133 983.776 412.267 993.909 418.4C1004.04 424.267 1016.18 427.2 1030.31 427.2C1045.78 427.2 1057.38 423.6 1065.11 416.4C1072.84 409.2 1076.71 400.8 1076.71 391.2C1076.71 384 1074.31 377.6 1069.51 372C1064.98 366.133 1057.38 360.4 1046.71 354.8L989.909 318.8C976.576 311.867 966.843 302.667 960.709 291.2C954.843 279.733 952.709 267.2 954.309 253.6C955.643 240.8 959.376 229.867 965.509 220.8C971.909 211.733 980.309 204.8 990.709 200C1001.11 195.2 1012.98 192.8 1026.31 192.8ZM1099.91 196.4L1099.51 203.6H1056.71V196.4H1099.91ZM1281.08 199.2V438H1223.08V199.2H1281.08ZM1368.28 197.6V213.6H1136.28V197.6H1368.28ZM1368.28 212.4V254.8H1363.88V251.2C1364.15 239.733 1360.95 230.667 1354.28 224C1347.88 217.333 1338.95 213.867 1327.48 213.6V212.4H1368.28ZM1368.28 191.6V201.6L1325.88 197.6C1330.95 197.6 1336.41 197.333 1342.28 196.8C1348.15 196 1353.48 195.2 1358.28 194.4C1363.08 193.333 1366.41 192.4 1368.28 191.6ZM1223.88 412.8V438H1197.08V434C1197.08 434 1197.75 434 1199.08 434C1200.68 434 1201.48 434 1201.48 434C1207.35 434 1212.28 432 1216.28 428C1220.55 423.733 1222.81 418.667 1223.08 412.8H1223.88ZM1279.88 412.8H1281.08C1281.08 418.667 1283.21 423.733 1287.48 428C1291.75 432 1296.95 434 1303.08 434C1303.08 434 1303.75 434 1305.08 434C1306.68 434 1307.48 434 1307.48 434V438H1279.88V412.8ZM1177.08 212.4V213.6C1165.35 213.867 1156.28 217.333 1149.88 224C1143.75 230.667 1140.68 239.733 1140.68 251.2V254.8H1136.28V212.4H1177.08ZM1136.28 191.6C1138.68 192.133 1142.15 192.933 1146.68 194C1151.48 195.067 1156.68 196 1162.28 196.8C1168.15 197.333 1173.48 197.6 1178.28 197.6L1136.28 201.6V191.6ZM1473.25 198V438H1415.65V198H1473.25ZM1566.85 422L1576.05 438H1472.45V422H1566.85ZM1553.25 311.2V327.2H1472.45V311.2H1553.25ZM1571.25 198V214H1472.45V198H1571.25ZM1592.45 364.4L1577.25 438H1508.05L1520.45 422C1531.92 422 1542.05 419.733 1550.85 415.2C1559.92 410.4 1567.65 403.733 1574.05 395.2C1580.45 386.4 1585.38 376.133 1588.85 364.4H1592.45ZM1553.25 326.4V361.6H1549.25V358.4C1549.25 349.6 1546.45 342.267 1540.85 336.4C1535.52 330.533 1528.18 327.467 1518.85 327.2V326.4H1553.25ZM1553.25 276.8V312H1518.85V311.2C1528.18 310.933 1535.52 307.867 1540.85 302C1546.45 295.867 1549.25 288.4 1549.25 279.6V276.8H1553.25ZM1571.25 213.2V255.6H1567.25V252C1567.25 240.267 1564.05 231.067 1557.65 224.4C1551.52 217.733 1542.58 214.267 1530.85 214V213.2H1571.25ZM1571.25 192V201.6L1529.25 198C1536.98 198 1545.12 197.333 1553.65 196C1562.18 194.4 1568.05 193.067 1571.25 192ZM1416.45 412.8L1418.45 438H1388.85V434C1388.85 434 1389.65 434 1391.25 434C1392.85 434 1393.78 434 1394.05 434C1399.92 434 1404.85 432 1408.85 428C1413.12 423.733 1415.38 418.667 1415.65 412.8H1416.45ZM1416.45 223.2H1415.65C1415.38 217.067 1413.12 212 1408.85 208C1404.85 204 1399.92 202 1394.05 202C1393.78 202 1392.85 202 1391.25 202C1389.65 202 1388.85 202 1388.85 202V198H1418.45L1416.45 223.2ZM1695.87 198H1739.07C1750 198 1760.67 199.2 1771.07 201.6C1781.47 203.733 1790.8 207.333 1799.07 212.4C1807.34 217.2 1813.87 223.867 1818.67 232.4C1823.74 240.667 1826.27 251.067 1826.27 263.6C1826.27 272.933 1824.27 282.267 1820.27 291.6C1816.54 300.667 1810.54 308.533 1802.27 315.2C1794.27 321.867 1783.74 326.267 1770.67 328.4C1778.4 330.8 1785.74 335.467 1792.67 342.4C1799.87 349.333 1805.47 355.867 1809.47 362C1810.54 364.133 1812.4 367.6 1815.07 372.4C1817.74 376.933 1821.07 382.267 1825.07 388.4C1829.34 394.267 1833.74 400.4 1838.27 406.8C1843.6 414 1848.27 419.6 1852.27 423.6C1856.27 427.333 1860.4 430 1864.67 431.6C1868.94 433.2 1873.87 434 1879.47 434V438H1845.87C1831.47 438 1819.2 436.933 1809.07 434.8C1799.2 432.667 1790.54 428.8 1783.07 423.2C1775.87 417.333 1769.2 409.467 1763.07 399.6C1760.67 396.133 1758.14 392 1755.47 387.2C1752.8 382.133 1750.14 377.067 1747.47 372C1744.8 366.933 1742.4 362 1740.27 357.2C1738.4 352.4 1737.07 348.4 1736.27 345.2C1732.8 336.667 1728.8 330.533 1724.27 326.8C1720 322.8 1716 320.8 1712.27 320.8V317.2C1712.27 317.2 1713.2 317.2 1715.07 317.2C1716.94 317.2 1719.34 317.2 1722.27 317.2C1727.87 317.2 1733.34 316.267 1738.67 314.4C1744.27 312.267 1749.34 308.4 1753.87 302.8C1758.4 296.933 1761.74 288.4 1763.87 277.2C1764.4 275.6 1764.8 273.333 1765.07 270.4C1765.6 267.467 1765.74 264.133 1765.47 260.4C1764.94 250.533 1763.07 242.667 1759.87 236.8C1756.94 230.667 1753.2 226.133 1748.67 223.2C1744.14 220 1739.47 217.867 1734.67 216.8C1730.14 215.467 1726.14 214.8 1722.67 214.8C1717.6 214.533 1712.94 214.533 1708.67 214.8C1704.67 214.8 1701.6 214.667 1699.47 214.4C1699.2 214.4 1698.8 213.067 1698.27 210.4C1697.74 207.467 1697.2 204.667 1696.67 202C1696.14 199.333 1695.87 198 1695.87 198ZM1699.87 198V438H1641.87V198H1699.87ZM1643.07 412.8L1644.67 438H1615.87V434C1616.14 434 1616.8 434 1617.87 434C1619.2 434 1620.14 434 1620.67 434C1626.54 434 1631.47 432 1635.47 428C1639.74 423.733 1642 418.667 1642.27 412.8H1643.07ZM1643.07 222.8H1642.27C1642 216.667 1639.74 211.733 1635.47 208C1631.47 204 1626.67 202 1621.07 202C1620.27 202 1619.2 202 1617.87 202C1616.8 202 1616.14 202 1615.87 202V198H1644.67L1643.07 222.8ZM1699.07 412.8H1699.87C1699.87 419.467 1702.14 424.667 1706.67 428.4C1711.47 432.133 1716.54 434 1721.87 434C1721.87 434 1722.4 434 1723.47 434C1724.54 434 1725.34 434 1725.87 434V438H1697.07L1699.07 412.8ZM2011.15 198C2039.68 198 2064.22 202.8 2084.75 212.4C2105.28 221.733 2121.02 235.467 2131.95 253.6C2142.88 271.467 2148.35 292.933 2148.35 318C2148.35 343.067 2142.88 364.533 2131.95 382.4C2121.02 400.267 2105.28 414 2084.75 423.6C2064.22 433.2 2039.68 438 2011.15 438H1922.35L1921.55 422C1941.82 422 1958.08 422 1970.35 422C1982.88 422 1991.95 422 1997.55 422C2003.42 422 2006.35 422 2006.35 422C2031.42 422 2051.15 412.8 2065.55 394.4C2079.95 376 2087.15 350.533 2087.15 318C2087.15 285.467 2079.95 260 2065.55 241.6C2051.15 222.933 2031.42 213.6 2006.35 213.6C2006.35 213.6 2003.42 213.6 1997.55 213.6C1991.68 213.6 1982.22 213.6 1969.15 213.6C1956.08 213.6 1938.88 213.6 1917.55 213.6V198H2011.15ZM1961.15 198V438H1903.55V198H1961.15ZM1904.75 412.4V438H1875.95V434C1875.95 434 1876.75 434 1878.35 434C1879.95 434 1880.88 434 1881.15 434C1887.28 434 1892.48 431.867 1896.75 427.6C1901.28 423.333 1903.55 418.267 1903.55 412.4H1904.75ZM1904.35 223.2H1903.55C1903.28 217.067 1900.88 212 1896.35 208C1892.08 204 1886.88 202 1880.75 202C1880.75 202 1879.95 202 1878.35 202C1876.75 202 1875.95 202 1875.95 202V198H1904.35V223.2ZM2255.28 198V438H2197.68V198H2255.28ZM2348.88 422L2358.08 438H2254.48V422H2348.88ZM2335.28 311.2V327.2H2254.48V311.2H2335.28ZM2353.28 198V214H2254.48V198H2353.28ZM2374.48 364.4L2359.28 438H2290.08L2302.48 422C2313.95 422 2324.08 419.733 2332.88 415.2C2341.95 410.4 2349.68 403.733 2356.08 395.2C2362.48 386.4 2367.41 376.133 2370.88 364.4H2374.48ZM2335.28 326.4V361.6H2331.28V358.4C2331.28 349.6 2328.48 342.267 2322.88 336.4C2317.55 330.533 2310.21 327.467 2300.88 327.2V326.4H2335.28ZM2335.28 276.8V312H2300.88V311.2C2310.21 310.933 2317.55 307.867 2322.88 302C2328.48 295.867 2331.28 288.4 2331.28 279.6V276.8H2335.28ZM2353.28 213.2V255.6H2349.28V252C2349.28 240.267 2346.08 231.067 2339.68 224.4C2333.55 217.733 2324.61 214.267 2312.88 214V213.2H2353.28ZM2353.28 192V201.6L2311.28 198C2319.01 198 2327.15 197.333 2335.68 196C2344.21 194.4 2350.08 193.067 2353.28 192ZM2198.48 412.8L2200.48 438H2170.88V434C2170.88 434 2171.68 434 2173.28 434C2174.88 434 2175.81 434 2176.08 434C2181.95 434 2186.88 432 2190.88 428C2195.15 423.733 2197.41 418.667 2197.68 412.8H2198.48ZM2198.48 223.2H2197.68C2197.41 217.067 2195.15 212 2190.88 208C2186.88 204 2181.95 202 2176.08 202C2175.81 202 2174.88 202 2173.28 202C2171.68 202 2170.88 202 2170.88 202V198H2200.48L2198.48 223.2ZM2478.26 192.8C2483.6 192.8 2490 193.067 2497.46 193.6C2505.2 194.133 2512.8 194.8 2520.26 195.6C2527.73 196.133 2534.26 196.933 2539.86 198C2545.73 198.8 2549.73 199.6 2551.86 200.4L2546.66 249.2H2543.06C2543.06 236.933 2538.8 227.2 2530.26 220C2521.73 212.8 2509.46 209.2 2493.46 209.2C2480.66 209.2 2470.26 212 2462.26 217.6C2454.53 223.2 2450.4 230.667 2449.86 240C2449.33 244.8 2450.13 249.2 2452.26 253.2C2454.66 256.933 2457.86 260.267 2461.86 263.2C2466.13 266.133 2470.8 269.067 2475.86 272L2538.66 310.8C2549.33 316.133 2557.73 323.867 2563.86 334C2570 344.133 2572.66 356.4 2571.86 370.8C2571.06 385.733 2566.66 398.667 2558.66 409.6C2550.93 420.533 2540.13 428.933 2526.26 434.8C2512.66 440.4 2496.53 443.2 2477.86 443.2C2466.4 443.2 2455.73 442.267 2445.86 440.4C2436 438.533 2427.46 436 2420.26 432.8C2413.33 429.6 2408 426 2404.26 422C2402.13 416.667 2401.2 410.267 2401.46 402.8C2401.73 395.067 2402.93 387.467 2405.06 380C2407.2 372.267 2409.86 365.867 2413.06 360.8H2416.26C2415.46 372.8 2417.6 383.867 2422.66 394C2428 404.133 2435.73 412.267 2445.86 418.4C2456 424.267 2468.13 427.2 2482.26 427.2C2497.73 427.2 2509.33 423.6 2517.06 416.4C2524.8 409.2 2528.66 400.8 2528.66 391.2C2528.66 384 2526.26 377.6 2521.46 372C2516.93 366.133 2509.33 360.4 2498.66 354.8L2441.86 318.8C2428.53 311.867 2418.8 302.667 2412.66 291.2C2406.8 279.733 2404.66 267.2 2406.26 253.6C2407.6 240.8 2411.33 229.867 2417.46 220.8C2423.86 211.733 2432.26 204.8 2442.66 200C2453.06 195.2 2464.93 192.8 2478.26 192.8ZM2551.86 196.4L2551.46 203.6H2508.66V196.4H2551.86ZM2739.38 286.8L2828.98 411.2C2834.04 418.667 2839.38 424.4 2844.98 428.4C2850.58 432.133 2857.11 434.133 2864.58 434.4V438H2833.78C2831.11 438 2826.71 437.867 2820.58 437.6C2814.44 437.333 2807.38 436.4 2799.38 434.8C2791.64 432.933 2783.78 429.867 2775.78 425.6C2767.78 421.333 2760.71 415.2 2754.58 407.2C2753.24 405.333 2750.98 402.133 2747.78 397.6C2744.58 393.067 2740.71 387.733 2736.18 381.6C2731.91 375.467 2727.38 369.2 2722.58 362.8C2718.04 356.4 2713.78 350.4 2709.78 344.8C2705.78 339.2 2702.58 334.667 2700.18 331.2C2697.78 327.733 2696.58 326 2696.58 326L2739.38 286.8ZM2824.18 200.4L2719.78 323.6L2696.58 326L2791.38 200.4H2824.18ZM2848.98 197.6V201.6H2847.38C2839.64 201.6 2832.44 203.067 2825.78 206C2819.11 208.933 2813.64 212.933 2809.38 218L2778.58 217.2C2781.51 213.467 2782.04 210 2780.18 206.8C2778.31 203.333 2775.11 201.6 2770.58 201.6H2767.38V197.6H2847.38H2848.98ZM2684.98 197.6V438H2627.38V197.6H2684.98ZM2628.18 412.8V438H2600.98V434C2600.98 434 2601.51 434 2602.58 434C2603.91 434 2604.71 434 2604.98 434C2611.11 434 2616.31 432 2620.58 428C2624.84 423.733 2627.11 418.667 2627.38 412.8H2628.18ZM2683.78 412.8H2684.98C2684.98 418.667 2687.11 423.733 2691.38 428C2695.64 432 2700.84 434 2706.98 434C2707.24 434 2708.04 434 2709.38 434C2710.71 434 2711.38 434 2711.38 434V438H2683.78V412.8ZM2683.78 223.2V197.6H2711.38V201.6C2711.11 201.6 2710.31 201.6 2708.98 201.6C2707.91 201.6 2707.24 201.6 2706.98 201.6C2700.84 201.6 2695.64 203.733 2691.38 208C2687.11 212 2684.98 217.067 2684.98 223.2H2683.78ZM2628.18 223.2H2627.38C2627.11 217.067 2624.84 212 2620.58 208C2616.31 203.733 2611.11 201.6 2604.98 201.6C2604.98 201.6 2604.31 201.6 2602.98 201.6C2601.64 201.6 2600.84 201.6 2600.58 201.6V197.6H2628.18V223.2Z" fill="white"/>
</g>
<defs>
<clipPath id="clip0_2112_35">
<rect width="2888" height="449" fill="white"/>
</clipPath>
</defs>
</svg>
