<svg width="2334" height="583" viewBox="0 0 2334 583" fill="none" xmlns="http://www.w3.org/2000/svg">
<g clip-path="url(#clip0_2112_43)">
<path d="M776.7 376.9L865.5 563.5H814.8L759 431.8L776.7 376.9ZM720.3 545.2C718.1 550.6 718.4 554.8 721.2 557.8C724 560.6 727.1 562 730.5 562H732.9V565H672.9V562C672.9 562 673.3 562 674.1 562C674.9 562 675.3 562 675.3 562C679.3 562 683.5 560.8 687.9 558.4C692.3 555.8 695.9 551.4 698.7 545.2H720.3ZM776.7 376.9L777.3 412.9L712.2 564.1H690L760.2 413.2C760.6 412 761.5 409.9 762.9 406.9C764.3 403.7 765.8 400.2 767.4 396.4C769 392.4 770.5 388.7 771.9 385.3C773.3 381.7 774.1 378.9 774.3 376.9H776.7ZM802.8 506.2V517.9H726.3V506.2H802.8ZM807.3 545.2H856.8C859.8 551.4 863.5 555.8 867.9 558.4C872.3 560.8 876.5 562 880.5 562C880.5 562 880.9 562 881.7 562C882.5 562 882.9 562 882.9 562V565H794.7V562H797.1C800.5 562 803.6 560.6 806.4 557.8C809.2 554.8 809.5 550.6 807.3 545.2ZM948.982 381.1C952.982 381.1 957.782 381.3 963.382 381.7C969.182 382.1 974.882 382.6 980.482 383.2C986.082 383.6 990.982 384.2 995.182 385C999.582 385.6 1002.58 386.2 1004.18 386.8L1000.28 423.4H997.582C997.582 414.2 994.382 406.9 987.982 401.5C981.582 396.1 972.382 393.4 960.382 393.4C950.782 393.4 942.982 395.5 936.982 399.7C931.182 403.9 928.082 409.5 927.682 416.5C927.282 420.1 927.882 423.4 929.482 426.4C931.282 429.2 933.682 431.7 936.682 433.9C939.882 436.1 943.382 438.3 947.182 440.5L994.282 469.6C1002.28 473.6 1008.58 479.4 1013.18 487C1017.78 494.6 1019.78 503.8 1019.18 514.6C1018.58 525.8 1015.28 535.5 1009.28 543.7C1003.48 551.9 995.382 558.2 984.982 562.6C974.782 566.8 962.682 568.9 948.682 568.9C940.082 568.9 932.082 568.2 924.682 566.8C917.282 565.4 910.882 563.5 905.482 561.1C900.282 558.7 896.282 556 893.482 553C891.882 549 891.182 544.2 891.382 538.6C891.582 532.8 892.482 527.1 894.082 521.5C895.682 515.7 897.682 510.9 900.082 507.1H902.482C901.882 516.1 903.482 524.4 907.282 532C911.282 539.6 917.082 545.7 924.682 550.3C932.282 554.7 941.382 556.9 951.982 556.9C963.582 556.9 972.282 554.2 978.082 548.8C983.882 543.4 986.782 537.1 986.782 529.9C986.782 524.5 984.982 519.7 981.382 515.5C977.982 511.1 972.282 506.8 964.282 502.6L921.682 475.6C911.682 470.4 904.382 463.5 899.782 454.9C895.382 446.3 893.782 436.9 894.982 426.7C895.982 417.1 898.782 408.9 903.382 402.1C908.182 395.3 914.482 390.1 922.282 386.5C930.082 382.9 938.982 381.1 948.982 381.1ZM1004.18 383.8L1003.88 389.2H971.782V383.8H1004.18ZM1140.06 385.9V565H1096.56V385.9H1140.06ZM1205.46 384.7V396.7H1031.46V384.7H1205.46ZM1205.46 395.8V427.6H1202.16V424.9C1202.36 416.3 1199.96 409.5 1194.96 404.5C1190.16 399.5 1183.46 396.9 1174.86 396.7V395.8H1205.46ZM1205.46 380.2V387.7L1173.66 384.7C1177.46 384.7 1181.56 384.5 1185.96 384.1C1190.36 383.5 1194.36 382.9 1197.96 382.3C1201.56 381.5 1204.06 380.8 1205.46 380.2ZM1097.16 546.1V565H1077.06V562C1077.06 562 1077.56 562 1078.56 562C1079.76 562 1080.36 562 1080.36 562C1084.76 562 1088.46 560.5 1091.46 557.5C1094.66 554.3 1096.36 550.5 1096.56 546.1H1097.16ZM1139.16 546.1H1140.06C1140.06 550.5 1141.66 554.3 1144.86 557.5C1148.06 560.5 1151.96 562 1156.56 562C1156.56 562 1157.06 562 1158.06 562C1159.26 562 1159.86 562 1159.86 562V565H1139.16V546.1ZM1062.06 395.8V396.7C1053.26 396.9 1046.46 399.5 1041.66 404.5C1037.06 409.5 1034.76 416.3 1034.76 424.9V427.6H1031.46V395.8H1062.06ZM1031.46 380.2C1033.26 380.6 1035.86 381.2 1039.26 382C1042.86 382.8 1046.76 383.5 1050.96 384.1C1055.36 384.5 1059.36 384.7 1062.96 384.7L1031.46 387.7V380.2ZM1284.19 385V565H1240.99V385H1284.19ZM1354.39 553L1361.29 565H1283.59V553H1354.39ZM1344.19 469.9V481.9H1283.59V469.9H1344.19ZM1357.69 385V397H1283.59V385H1357.69ZM1373.59 509.8L1362.19 565H1310.29L1319.59 553C1328.19 553 1335.79 551.3 1342.39 547.9C1349.19 544.3 1354.99 539.3 1359.79 532.9C1364.59 526.3 1368.29 518.6 1370.89 509.8H1373.59ZM1344.19 481.3V507.7H1341.19V505.3C1341.19 498.7 1339.09 493.2 1334.89 488.8C1330.89 484.4 1325.39 482.1 1318.39 481.9V481.3H1344.19ZM1344.19 444.1V470.5H1318.39V469.9C1325.39 469.7 1330.89 467.4 1334.89 463C1339.09 458.4 1341.19 452.8 1341.19 446.2V444.1H1344.19ZM1357.69 396.4V428.2H1354.69V425.5C1354.69 416.7 1352.29 409.8 1347.49 404.8C1342.89 399.8 1336.19 397.2 1327.39 397V396.4H1357.69ZM1357.69 380.5V387.7L1326.19 385C1331.99 385 1338.09 384.5 1344.49 383.5C1350.89 382.3 1355.29 381.3 1357.69 380.5ZM1241.59 546.1L1243.09 565H1220.89V562C1220.89 562 1221.49 562 1222.69 562C1223.89 562 1224.59 562 1224.79 562C1229.19 562 1232.89 560.5 1235.89 557.5C1239.09 554.3 1240.79 550.5 1240.99 546.1H1241.59ZM1241.59 403.9H1240.99C1240.79 399.3 1239.09 395.5 1235.89 392.5C1232.89 389.5 1229.19 388 1224.79 388C1224.59 388 1223.89 388 1222.69 388C1221.49 388 1220.89 388 1220.89 388V385H1243.09L1241.59 403.9ZM1451.15 385H1483.55C1491.75 385 1499.75 385.9 1507.55 387.7C1515.35 389.3 1522.35 392 1528.55 395.8C1534.75 399.4 1539.65 404.4 1543.25 410.8C1547.05 417 1548.95 424.8 1548.95 434.2C1548.95 441.2 1547.45 448.2 1544.45 455.2C1541.65 462 1537.15 467.9 1530.95 472.9C1524.95 477.9 1517.05 481.2 1507.25 482.8C1513.05 484.6 1518.55 488.1 1523.75 493.3C1529.15 498.5 1533.35 503.4 1536.35 508C1537.15 509.6 1538.55 512.2 1540.55 515.8C1542.55 519.2 1545.05 523.2 1548.05 527.8C1551.25 532.2 1554.55 536.8 1557.95 541.6C1561.95 547 1565.45 551.2 1568.45 554.2C1571.45 557 1574.55 559 1577.75 560.2C1580.95 561.4 1584.65 562 1588.85 562V565H1563.65C1552.85 565 1543.65 564.2 1536.05 562.6C1528.65 561 1522.15 558.1 1516.55 553.9C1511.15 549.5 1506.15 543.6 1501.55 536.2C1499.75 533.6 1497.85 530.5 1495.85 526.9C1493.85 523.1 1491.85 519.3 1489.85 515.5C1487.85 511.7 1486.05 508 1484.45 504.4C1483.05 500.8 1482.05 497.8 1481.45 495.4C1478.85 489 1475.85 484.4 1472.45 481.6C1469.25 478.6 1466.25 477.1 1463.45 477.1V474.4C1463.45 474.4 1464.15 474.4 1465.55 474.4C1466.95 474.4 1468.75 474.4 1470.95 474.4C1475.15 474.4 1479.25 473.7 1483.25 472.3C1487.45 470.7 1491.25 467.8 1494.65 463.6C1498.05 459.2 1500.55 452.8 1502.15 444.4C1502.55 443.2 1502.85 441.5 1503.05 439.3C1503.45 437.1 1503.55 434.6 1503.35 431.8C1502.95 424.4 1501.55 418.5 1499.15 414.1C1496.95 409.5 1494.15 406.1 1490.75 403.9C1487.35 401.5 1483.85 399.9 1480.25 399.1C1476.85 398.1 1473.85 397.6 1471.25 397.6C1467.45 397.4 1463.95 397.4 1460.75 397.6C1457.75 397.6 1455.45 397.5 1453.85 397.3C1453.65 397.3 1453.35 396.3 1452.95 394.3C1452.55 392.1 1452.15 390 1451.75 388C1451.35 386 1451.15 385 1451.15 385ZM1454.15 385V565H1410.65V385H1454.15ZM1411.55 546.1L1412.75 565H1391.15V562C1391.35 562 1391.85 562 1392.65 562C1393.65 562 1394.35 562 1394.75 562C1399.15 562 1402.85 560.5 1405.85 557.5C1409.05 554.3 1410.75 550.5 1410.95 546.1H1411.55ZM1411.55 403.6H1410.95C1410.75 399 1409.05 395.3 1405.85 392.5C1402.85 389.5 1399.25 388 1395.05 388C1394.45 388 1393.65 388 1392.65 388C1391.85 388 1391.35 388 1391.15 388V385H1412.75L1411.55 403.6ZM1453.55 546.1H1454.15C1454.15 551.1 1455.85 555 1459.25 557.8C1462.85 560.6 1466.65 562 1470.65 562C1470.65 562 1471.05 562 1471.85 562C1472.65 562 1473.25 562 1473.65 562V565H1452.05L1453.55 546.1ZM1687.61 385C1709.01 385 1727.41 388.6 1742.81 395.8C1758.21 402.8 1770.01 413.1 1778.21 426.7C1786.41 440.1 1790.51 456.2 1790.51 475C1790.51 493.8 1786.41 509.9 1778.21 523.3C1770.01 536.7 1758.21 547 1742.81 554.2C1727.41 561.4 1709.01 565 1687.61 565H1621.01L1620.41 553C1635.61 553 1647.81 553 1657.01 553C1666.41 553 1673.21 553 1677.41 553C1681.81 553 1684.01 553 1684.01 553C1702.81 553 1717.61 546.1 1728.41 532.3C1739.21 518.5 1744.61 499.4 1744.61 475C1744.61 450.6 1739.21 431.5 1728.41 417.7C1717.61 403.7 1702.81 396.7 1684.01 396.7C1684.01 396.7 1681.81 396.7 1677.41 396.7C1673.01 396.7 1665.91 396.7 1656.11 396.7C1646.31 396.7 1633.41 396.7 1617.41 396.7V385H1687.61ZM1650.11 385V565H1606.91V385H1650.11ZM1607.81 545.8V565H1586.21V562C1586.21 562 1586.81 562 1588.01 562C1589.21 562 1589.91 562 1590.11 562C1594.71 562 1598.61 560.4 1601.81 557.2C1605.21 554 1606.91 550.2 1606.91 545.8H1607.81ZM1607.51 403.9H1606.91C1606.71 399.3 1604.91 395.5 1601.51 392.5C1598.31 389.5 1594.41 388 1589.81 388C1589.81 388 1589.21 388 1588.01 388C1586.81 388 1586.21 388 1586.21 388V385H1607.51V403.9ZM1870.71 385V565H1827.51V385H1870.71ZM1940.91 553L1947.81 565H1870.11V553H1940.91ZM1930.71 469.9V481.9H1870.11V469.9H1930.71ZM1944.21 385V397H1870.11V385H1944.21ZM1960.11 509.8L1948.71 565H1896.81L1906.11 553C1914.71 553 1922.31 551.3 1928.91 547.9C1935.71 544.3 1941.51 539.3 1946.31 532.9C1951.11 526.3 1954.81 518.6 1957.41 509.8H1960.11ZM1930.71 481.3V507.7H1927.71V505.3C1927.71 498.7 1925.61 493.2 1921.41 488.8C1917.41 484.4 1911.91 482.1 1904.91 481.9V481.3H1930.71ZM1930.71 444.1V470.5H1904.91V469.9C1911.91 469.7 1917.41 467.4 1921.41 463C1925.61 458.4 1927.71 452.8 1927.71 446.2V444.1H1930.71ZM1944.21 396.4V428.2H1941.21V425.5C1941.21 416.7 1938.81 409.8 1934.01 404.8C1929.41 399.8 1922.71 397.2 1913.91 397V396.4H1944.21ZM1944.21 380.5V387.7L1912.71 385C1918.51 385 1924.61 384.5 1931.01 383.5C1937.41 382.3 1941.81 381.3 1944.21 380.5ZM1828.11 546.1L1829.61 565H1807.41V562C1807.41 562 1808.01 562 1809.21 562C1810.41 562 1811.11 562 1811.31 562C1815.71 562 1819.41 560.5 1822.41 557.5C1825.61 554.3 1827.31 550.5 1827.51 546.1H1828.11ZM1828.11 403.9H1827.51C1827.31 399.3 1825.61 395.5 1822.41 392.5C1819.41 389.5 1815.71 388 1811.31 388C1811.11 388 1810.41 388 1809.21 388C1808.01 388 1807.41 388 1807.41 388V385H1829.61L1828.11 403.9ZM2037.95 381.1C2041.95 381.1 2046.75 381.3 2052.35 381.7C2058.15 382.1 2063.85 382.6 2069.45 383.2C2075.05 383.6 2079.95 384.2 2084.15 385C2088.55 385.6 2091.55 386.2 2093.15 386.8L2089.25 423.4H2086.55C2086.55 414.2 2083.35 406.9 2076.95 401.5C2070.55 396.1 2061.35 393.4 2049.35 393.4C2039.75 393.4 2031.95 395.5 2025.95 399.7C2020.15 403.9 2017.05 409.5 2016.65 416.5C2016.25 420.1 2016.85 423.4 2018.45 426.4C2020.25 429.2 2022.65 431.7 2025.65 433.9C2028.85 436.1 2032.35 438.3 2036.15 440.5L2083.25 469.6C2091.25 473.6 2097.55 479.4 2102.15 487C2106.75 494.6 2108.75 503.8 2108.15 514.6C2107.55 525.8 2104.25 535.5 2098.25 543.7C2092.45 551.9 2084.35 558.2 2073.95 562.6C2063.75 566.8 2051.65 568.9 2037.65 568.9C2029.05 568.9 2021.05 568.2 2013.65 566.8C2006.25 565.4 1999.85 563.5 1994.45 561.1C1989.25 558.7 1985.25 556 1982.45 553C1980.85 549 1980.15 544.2 1980.35 538.6C1980.55 532.8 1981.45 527.1 1983.05 521.5C1984.65 515.7 1986.65 510.9 1989.05 507.1H1991.45C1990.85 516.1 1992.45 524.4 1996.25 532C2000.25 539.6 2006.05 545.7 2013.65 550.3C2021.25 554.7 2030.35 556.9 2040.95 556.9C2052.55 556.9 2061.25 554.2 2067.05 548.8C2072.85 543.4 2075.75 537.1 2075.75 529.9C2075.75 524.5 2073.95 519.7 2070.35 515.5C2066.95 511.1 2061.25 506.8 2053.25 502.6L2010.65 475.6C2000.65 470.4 1993.35 463.5 1988.75 454.9C1984.35 446.3 1982.75 436.9 1983.95 426.7C1984.95 417.1 1987.75 408.9 1992.35 402.1C1997.15 395.3 2003.45 390.1 2011.25 386.5C2019.05 382.9 2027.95 381.1 2037.95 381.1ZM2093.15 383.8L2092.85 389.2H2060.75V383.8H2093.15ZM2233.78 451.6L2300.98 544.9C2304.78 550.5 2308.78 554.8 2312.98 557.8C2317.18 560.6 2322.08 562.1 2327.68 562.3V565H2304.58C2302.58 565 2299.28 564.9 2294.68 564.7C2290.08 564.5 2284.78 563.8 2278.78 562.6C2272.98 561.2 2267.08 558.9 2261.08 555.7C2255.08 552.5 2249.78 547.9 2245.18 541.9C2244.18 540.5 2242.48 538.1 2240.08 534.7C2237.68 531.3 2234.78 527.3 2231.38 522.7C2228.18 518.1 2224.78 513.4 2221.18 508.6C2217.78 503.8 2214.58 499.3 2211.58 495.1C2208.58 490.9 2206.18 487.5 2204.38 484.9C2202.58 482.3 2201.68 481 2201.68 481L2233.78 451.6ZM2297.38 386.8L2219.08 479.2L2201.68 481L2272.78 386.8H2297.38ZM2315.98 384.7V387.7H2314.78C2308.98 387.7 2303.58 388.8 2298.58 391C2293.58 393.2 2289.48 396.2 2286.28 400L2263.18 399.4C2265.38 396.6 2265.78 394 2264.38 391.6C2262.98 389 2260.58 387.7 2257.18 387.7H2254.78V384.7H2314.78H2315.98ZM2192.98 384.7V565H2149.78V384.7H2192.98ZM2150.38 546.1V565H2129.98V562C2129.98 562 2130.38 562 2131.18 562C2132.18 562 2132.78 562 2132.98 562C2137.58 562 2141.48 560.5 2144.68 557.5C2147.88 554.3 2149.58 550.5 2149.78 546.1H2150.38ZM2192.08 546.1H2192.98C2192.98 550.5 2194.58 554.3 2197.78 557.5C2200.98 560.5 2204.88 562 2209.48 562C2209.68 562 2210.28 562 2211.28 562C2212.28 562 2212.78 562 2212.78 562V565H2192.08V546.1ZM2192.08 403.9V384.7H2212.78V387.7C2212.58 387.7 2211.98 387.7 2210.98 387.7C2210.18 387.7 2209.68 387.7 2209.48 387.7C2204.88 387.7 2200.98 389.3 2197.78 392.5C2194.58 395.5 2192.98 399.3 2192.98 403.9H2192.08ZM2150.38 403.9H2149.78C2149.58 399.3 2147.88 395.5 2144.68 392.5C2141.48 389.3 2137.58 387.7 2132.98 387.7C2132.98 387.7 2132.48 387.7 2131.48 387.7C2130.48 387.7 2129.88 387.7 2129.68 387.7V384.7H2150.38V403.9Z" fill="white"/>
<path d="M763 331.6C750.467 331.6 740.6 326.8 733.4 317.2C727 308.4 723.8 296.667 723.8 282C723.8 263.867 729.933 242.133 742.2 216.8C703.8 214.4 684.6 195.333 684.6 159.6C684.6 139.333 691 117.467 703.8 94C708.333 85.4667 713.4 77.4667 719 70C724.6 62.2667 730.733 55.4666 737.4 49.6C754.2 33.8667 771.4 26 789 26C821.8 26 838.2 43.4667 838.2 78.4C838.2 87.7333 836.6 97.6 833.4 108C830.467 118.4 825.533 129.333 818.6 140.8C811.933 152.267 804.867 163.6 797.4 174.8C789.933 185.733 782.733 196.8 775.8 208C788.333 205.867 802.2 202.133 817.4 196.8C818.2 196.533 819.133 196.4 820.2 196.4C822.333 196.4 823.4 197.333 823.4 199.2C823.4 200.8 821.933 202.267 819 203.6C810.2 206.533 801.8 209.067 793.8 211.2C785.8 213.333 778.2 214.933 771 216C755.8 242.4 748.2 265.733 748.2 286C748.2 295.867 749.8 304 753 310.4C757.533 318.133 763.8 322 771.8 322C786.467 322 803.533 311.067 823 289.2C831.267 280.133 844.467 259.867 862.6 228.4C866.333 206.8 871.267 188.8 877.4 174.4C883.8 159.467 892.2 152 902.6 152C909.533 152 913 156.133 913 164.4C913 168.667 911.533 174.4 908.6 181.6C906.467 186.667 903.933 191.6 901 196.4C898.333 201.2 895.533 205.867 892.6 210.4L878.2 230.4C871.8 247.467 868.6 264.667 868.6 282C868.6 287.6 869 292.667 869.8 297.2C873 314.267 881 322.8 893.8 322.8C926.6 322.8 962.2 286 1000.6 212.4C1013.93 187.333 1020.6 160.4 1020.6 131.6C1020.6 104.933 1013 86 997.8 74.8C991.133 69.7333 981.667 67.2 969.4 67.2C956.333 67.2 946.733 70.8 940.6 78C938.467 80.1333 936.6 81.2 935 81.2C933.4 81.2 932.6 80.5333 932.6 79.2C932.6 77.8666 933.133 76.6667 934.2 75.6C943 64.9333 957.667 59.6 978.2 59.6C990.2 59.6 1000.33 61.6 1008.6 65.6C1033.67 77.8667 1046.2 100.933 1046.2 134.8C1046.2 159.867 1039.4 185.467 1025.8 211.6C1018.07 226.533 1009.8 240.4 1001 253.2C992.2 266 982.867 277.467 973 287.6C946.067 316.133 919.667 330.4 893.8 330.4C873.267 330.4 860.333 321.6 855 304C853.133 298.133 852.2 291.333 852.2 283.6C852.2 276.667 853 269.467 854.6 262C849.533 269.467 844.467 276.4 839.4 282.8C834.6 288.933 829.667 294.533 824.6 299.6C803.267 320.933 782.733 331.6 763 331.6ZM745.8 209.6C751.933 198.667 758.067 187.733 764.2 176.8C770.6 165.867 776.867 154.8 783 143.6C797.667 117.2 807.133 95.6 811.4 78.8C813 71.8667 813.8 65.6 813.8 60C813.8 42.6667 806.2 34 791 34C780.067 34 767.933 39.8667 754.6 51.6C740.2 64.4 728.067 81.0667 718.2 101.6C707.8 123.2 702.6 142.933 702.6 160.8C702.6 190.4 717 206.667 745.8 209.6ZM1068.89 321.6C1058.49 321.6 1049.56 318.267 1042.09 311.6C1038.09 307.867 1035.16 303.6 1033.29 298.8C1031.69 293.733 1030.89 288 1030.89 281.6C1030.89 257.067 1041.02 232.667 1061.29 208.4C1078.36 187.867 1096.09 177.6 1114.49 177.6C1120.62 177.6 1125.82 179.2 1130.09 182.4C1134.62 186.133 1136.89 190.933 1136.89 196.8C1136.89 211.467 1127.16 226.133 1107.69 240.8C1101.56 245.333 1093.42 249.333 1083.29 252.8C1072.09 256.533 1063.96 258.4 1058.89 258.4C1055.16 267.467 1053.29 277.067 1053.29 287.2C1053.29 304.533 1059.69 313.2 1072.49 313.2C1089.29 313.2 1105.02 302.267 1119.69 280.4L1121.29 278L1128.09 280.8L1126.89 283.2C1120.22 296.533 1111.82 306.267 1101.69 312.4C1091.56 318.533 1080.62 321.6 1068.89 321.6ZM1061.29 251.6C1065.82 251.6 1072.09 250.133 1080.09 247.2C1084.62 245.333 1088.89 243.333 1092.89 241.2C1097.16 239.067 1100.89 236.667 1104.09 234C1118.76 221.733 1126.09 208.8 1126.09 195.2C1126.09 189.333 1123.96 186.4 1119.69 186.4C1112.22 186.4 1100.89 195.6 1085.69 214C1077.96 223.333 1069.82 235.867 1061.29 251.6ZM1149.15 320C1141.42 320 1137.55 316.133 1137.55 308.4C1137.55 303.6 1139.15 297.067 1142.35 288.8L1219.95 90.4C1220.48 89.6 1220.75 88.8 1220.75 88C1220.75 87.2 1220.75 86.5333 1220.75 86C1220.75 82 1219.15 77.8667 1215.95 73.6H1237.55C1245.02 73.6 1248.75 75.3333 1248.75 78.8C1248.75 80.4 1247.95 83.2 1246.35 87.2L1168.75 284.8C1165.28 293.333 1163.55 300.933 1163.55 307.6C1163.55 313.733 1165.42 317.867 1169.15 320H1149.15ZM1249.47 321.6C1222.81 321.6 1209.47 308.267 1209.47 281.6C1209.47 259.2 1217.21 237.067 1232.67 215.2C1249.47 191.2 1268.81 179.2 1290.67 179.2C1310.94 179.2 1320.01 188.4 1317.87 206.8C1317.61 211.6 1315.07 216.8 1310.27 222.4C1305.74 227.733 1301.34 230.4 1297.07 230.4C1294.67 230.4 1292.67 229.6 1291.07 228C1297.74 221.333 1301.87 214.533 1303.47 207.6C1304.01 205.733 1304.41 204.133 1304.67 202.8C1304.94 201.2 1305.07 199.733 1305.07 198.4C1305.07 191.467 1301.87 188 1295.47 188C1286.14 188 1273.07 199.333 1256.27 222C1240.27 243.6 1232.27 264.667 1232.27 285.2C1232.27 304.667 1239.74 314.4 1254.67 314.4C1269.07 314.4 1283.07 305.333 1296.67 287.2L1299.07 284L1304.67 287.2L1301.87 291.2C1287.74 311.467 1270.27 321.6 1249.47 321.6ZM1346.48 320C1327.02 320 1317.28 308.133 1317.28 284.4C1317.28 272.667 1320.08 260.267 1325.68 247.2C1333.68 228.267 1345.02 212.267 1359.68 199.2C1374.08 186.4 1387.68 180 1400.48 180C1420.22 180 1430.08 191.6 1430.08 214.8C1430.08 226.8 1427.15 239.467 1421.28 252.8C1414.35 268.8 1404.35 283.333 1391.28 296.4C1375.02 312.133 1360.08 320 1346.48 320ZM1352.88 311.2C1359.02 311.2 1365.55 308.667 1372.48 303.6C1381.28 297.2 1391.28 283.867 1402.48 263.6C1414.75 241.733 1420.88 224.133 1420.88 210.8C1420.88 198.8 1415.82 192.8 1405.68 192.8C1397.68 192.8 1388.62 197.867 1378.48 208C1368.62 217.867 1360.22 230.4 1353.28 245.6C1343.95 265.6 1339.28 281.6 1339.28 293.6C1339.28 305.333 1343.82 311.2 1352.88 311.2ZM1422.11 322.8C1427.44 309.733 1434.11 293.6 1442.11 274.4C1450.11 255.2 1459.84 233.067 1471.31 208C1473.71 202.667 1475.98 198.267 1478.11 194.8C1480.24 191.333 1482.24 188.667 1484.11 186.8C1487.84 183.067 1492.64 181.2 1498.51 181.2C1499.04 181.2 1499.98 181.2 1501.31 181.2C1502.64 181.2 1504.51 181.467 1506.91 182C1510.64 182.267 1513.44 182.267 1515.31 182C1505.44 187.867 1490.64 213.733 1470.91 259.6C1473.84 255.867 1477.58 251.2 1482.11 245.6C1486.64 239.733 1492.51 233.333 1499.71 226.4C1507.18 219.2 1513.31 213.6 1518.11 209.6C1522.91 205.6 1526.24 202.933 1528.11 201.6C1539.84 192.8 1548.51 188.4 1554.11 188.4C1561.84 188.4 1565.71 192.133 1565.71 199.6C1565.71 202 1565.18 204.267 1564.11 206.4C1560.91 212.533 1556.78 220.267 1551.71 229.6C1546.91 238.933 1541.31 249.867 1534.91 262.4C1547.71 246.4 1558.78 234.267 1568.11 226C1572.91 221.733 1578.24 217.6 1584.11 213.6C1590.24 209.6 1596.78 205.6 1603.71 201.6C1618.91 192.8 1630.38 188.4 1638.11 188.4C1639.98 188.4 1641.31 188.533 1642.11 188.8C1637.84 196.267 1633.84 203.467 1630.11 210.4C1626.64 217.333 1623.31 223.867 1620.11 230C1612.64 244.667 1606.78 257.2 1602.51 267.6C1598.24 278 1595.44 286.133 1594.11 292C1593.84 293.867 1593.58 295.6 1593.31 297.2C1593.31 298.8 1593.31 300.267 1593.31 301.6C1593.31 308.533 1595.84 312 1600.91 312C1609.18 312 1619.04 303.6 1630.51 286.8L1636.11 290.8C1622.51 311.333 1608.91 321.6 1595.31 321.6C1578.51 321.6 1570.11 312.933 1570.11 295.6C1570.11 281.2 1578.64 260.267 1595.71 232.8C1598.38 228.533 1599.71 224.933 1599.71 222C1599.71 218.8 1598.38 217.2 1595.71 217.2C1592.78 217.2 1588.91 218.8 1584.11 222C1579.31 224.933 1573.84 229.2 1567.71 234.8C1562.64 239.6 1557.31 245.333 1551.71 252C1546.38 258.667 1540.64 266.267 1534.51 274.8C1521.18 294.267 1513.31 309.333 1510.91 320C1506.38 320 1502.91 317.867 1500.51 313.6C1498.64 309.867 1497.71 306.133 1497.71 302.4C1497.71 297.067 1499.58 290 1503.31 281.2C1507.04 272.4 1512.24 261.733 1518.91 249.2C1526.64 235.333 1530.51 225.333 1530.51 219.2C1530.51 216.533 1529.44 215.2 1527.31 215.2C1523.04 215.2 1513.58 221.867 1498.91 235.2C1495.18 238.667 1491.18 243.067 1486.91 248.4C1482.91 253.467 1478.64 259.467 1474.11 266.4C1463.71 281.867 1455.71 297.333 1450.11 312.8C1448.51 316.8 1444.38 319.2 1437.71 320C1429.18 320.8 1423.98 321.733 1422.11 322.8ZM1684.12 321.6C1673.73 321.6 1664.79 318.267 1657.33 311.6C1653.33 307.867 1650.39 303.6 1648.53 298.8C1646.93 293.733 1646.13 288 1646.13 281.6C1646.13 257.067 1656.26 232.667 1676.53 208.4C1693.59 187.867 1711.33 177.6 1729.73 177.6C1735.86 177.6 1741.06 179.2 1745.33 182.4C1749.86 186.133 1752.13 190.933 1752.13 196.8C1752.13 211.467 1742.39 226.133 1722.93 240.8C1716.79 245.333 1708.66 249.333 1698.53 252.8C1687.33 256.533 1679.19 258.4 1674.13 258.4C1670.39 267.467 1668.53 277.067 1668.53 287.2C1668.53 304.533 1674.93 313.2 1687.73 313.2C1704.53 313.2 1720.26 302.267 1734.93 280.4L1736.53 278L1743.33 280.8L1742.13 283.2C1735.46 296.533 1727.06 306.267 1716.93 312.4C1706.79 318.533 1695.86 321.6 1684.12 321.6ZM1676.53 251.6C1681.06 251.6 1687.33 250.133 1695.33 247.2C1699.86 245.333 1704.13 243.333 1708.13 241.2C1712.39 239.067 1716.13 236.667 1719.33 234C1733.99 221.733 1741.33 208.8 1741.33 195.2C1741.33 189.333 1739.19 186.4 1734.93 186.4C1727.46 186.4 1716.13 195.6 1700.93 214C1693.19 223.333 1685.06 235.867 1676.53 251.6ZM1867.28 320C1849.95 320 1841.28 310.533 1841.28 291.6C1841.28 287.867 1841.55 284 1842.08 280C1842.88 276 1844.08 272 1845.68 268C1859.81 230.667 1871.81 200.267 1881.68 176.8H1855.68L1860.48 168H1885.28L1894.88 140C1898.35 130.133 1901.28 124.267 1903.68 122.4C1905.55 121.067 1909.81 120.4 1916.48 120.4L1933.68 120.8C1928.35 125.333 1924.35 130.8 1921.68 137.2L1908.48 168H1938.88L1934.08 176.8H1904.88C1903.01 181.067 1901.15 185.333 1899.28 189.6C1897.68 193.867 1895.81 198.267 1893.68 202.8C1888.08 215.067 1883.28 226.667 1879.28 237.6C1874.48 250.133 1870.61 260.933 1867.68 270C1865.01 279.067 1863.41 286.267 1862.88 291.6C1861.81 304.667 1865.28 311.2 1873.28 311.2C1880.75 311.2 1889.81 303.2 1900.48 287.2L1905.28 292.8C1892.48 310.933 1879.81 320 1867.28 320ZM1950.78 320C1931.31 320 1921.58 308.133 1921.58 284.4C1921.58 272.667 1924.38 260.267 1929.98 247.2C1937.98 228.267 1949.31 212.267 1963.98 199.2C1978.38 186.4 1991.98 180 2004.78 180C2024.51 180 2034.38 191.6 2034.38 214.8C2034.38 226.8 2031.45 239.467 2025.58 252.8C2018.65 268.8 2008.65 283.333 1995.58 296.4C1979.31 312.133 1964.38 320 1950.78 320ZM1957.18 311.2C1963.31 311.2 1969.85 308.667 1976.78 303.6C1985.58 297.2 1995.58 283.867 2006.78 263.6C2019.05 241.733 2025.18 224.133 2025.18 210.8C2025.18 198.8 2020.11 192.8 2009.98 192.8C2001.98 192.8 1992.91 197.867 1982.78 208C1972.91 217.867 1964.51 230.4 1957.58 245.6C1948.25 265.6 1943.58 281.6 1943.58 293.6C1943.58 305.333 1948.11 311.2 1957.18 311.2Z" fill="#43A67D"/>
<path d="M635 565H442C464.667 520.5 510.5 430.6 512.5 427C533.3 389 554.5 411.167 562.5 427L635 565Z" fill="white"/>
<path d="M192 189.007C288 93.0066 381 149.007 415.5 189.007C364.3 184.607 328.5 230.84 317 254.507C297.5 294.007 257.5 375.007 253.5 383.007C194 521.507 178 520.507 145.5 544.507C119.5 563.707 45 561.84 11 558.507C66.3333 445.173 180 212.607 192 189.007Z" fill="white"/>
<path d="M412 193.513C508 97.5132 601 153.513 635.5 193.513C584.3 189.113 548.5 235.346 537 259.013C517.5 298.513 477.5 379.513 473.5 387.513C414 526.013 398 525.013 365.5 549.013C339.5 568.213 265 566.347 231 563.013C286.333 449.68 400 217.113 412 193.513Z" fill="white"/>
</g>
<defs>
<clipPath id="clip0_2112_43">
<rect width="2334" height="583" fill="white"/>
</clipPath>
</defs>
</svg>
